/* XPM */
static char * exit_xpm[] = {
"32 32 17 1",
" 	c #72751B",
".	c #7F8124",
"+	c #787B21",
"@	c #686F16",
"#	c #90625D",
"$	c #D4C169",
"%	c #EAE178",
"&	c #C49A6C",
"*	c #DCB98A",
"=	c #F4F4A0",
"-	c #B3B0A9",
";	c #B09643",
">	c #A2814F",
",	c #BFA954",
"'	c #636917",
")	c #AA7959",
"!	c #9CA8AD",
"                                ",
"                                ",
"                                ",
"      .                         ",
"       .                        ",
"       ++                       ",
"      @++                       ",
"     .+@@                       ",
"     ++                         ",
"     @@  ##          ##         ",
"        #$$##########$$#        ",
"        %%%&********&%%%#       ",
"        %%&&&&****&&&&%%#       ",
"        %%&&&&&&&&&&&&%%# +     ",
"        %%&&&&&&&&&&&&%%# ++    ",
"        =%%%%%%%%%%%%%%=#--+    ",
"        ;==============;#>-@    ",
"        ,;#####%$#####;,#-'     ",
"    ..  ,,)))))$$))))),,#'      ",
"     .++$,)))))))))))),$#       ",
"  +..@+@#$$$$$$$$$$$$$$#        ",
"   .+--@+##############         ",
"   @->>-+@   .. .               ",
"    '--'     ++@+               ",
"     ''     !!+@@               ",
"           !>>!                 ",
"           '!!' !!              ",
"            ''  >!              ",
"                ''              ",
"                                ",
"                                ",
"                                "};
