/* XPM */
static char * player_xpm[] = {
"32 32 16 1",
" 	c #72751B",
".	c #7F8124",
"+	c #787B21",
"@	c #686F16",
"#	c #010101",
"$	c #FEFEFE",
"%	c #FFFFFF",
"&	c #B6B6DA",
"*	c #000000",
"=	c #50508A",
"-	c #BFBFE5",
";	c #B3B0A9",
">	c #A2814F",
",	c #636917",
"'	c #4C4C83",
")	c #9CA8AD",
"                                ",
"                                ",
"                                ",
"      .                         ",
"       .                        ",
"       ++                       ",
"      @++                       ",
"     .+@@     ######            ",
"     ++      #$%%%%$#           ",
"     @@     #$%%%%%%&#          ",
"            #%%%%%%%&*          ",
"            #%%#%%%#&#          ",
"            #%%#%%%#&#          ",
"            #$%%%%%%&#    +     ",
"             #$%%%%&#     ++    ",
"              #=--=#     ;;+    ",
"             #$%%%%&#   ;>;@    ",
"             #%%%%%&#   ;;,     ",
"    ..     . *$%%%%&*   ,,      ",
"     .++ +.  *%%%$-'*           ",
"  +..@+@++@  *%%$#=-*           ",
"   .+;;@++@ .#%$##--#           ",
"   @;>>;+@   #&#.#-#            ",
"    ,;;,     ###+##             ",
"     ,,     ))+@@               ",
"           )>>)                 ",
"           ,)), ))              ",
"            ,,  >)              ",
"                ,,              ",
"                                ",
"                                ",
"                                "};
